<?xml version="1.0"?>
<svg xmlns="http://www.w3.org/2000/svg" xmlns:xlink="http://www.w3.org/1999/xlink" xmlns:svgjs="http://svgjs.com/svgjs" version="1.1" width="512" height="512" x="0" y="0" viewBox="0 0 480 480" style="enable-background:new 0 0 512 512" xml:space="preserve" class=""><g><path xmlns="http://www.w3.org/2000/svg" d="m440 261.5h-400c-22.06 0-40 17.94-40 40v72c0 22.06 17.94 40 40 40h400c22.06 0 40-17.94 40-40v-72c0-22.06-17.94-40-40-40zm-344.667 84h-21.333c-4.418 0-8-3.582-8-8s3.582-8 8-8h21.333c4.418 0 8 3.582 8 8s-3.581 8-8 8zm91.667 0h-56.667c-4.418 0-8-3.582-8-8s3.582-8 8-8h56.667c4.418 0 8 3.582 8 8s-3.582 8-8 8zm-72-289.874v181.874c0 4.418-3.582 8-8 8h-43c-4.418 0-8-3.582-8-8v-182.5c0-16.564 13.712-29.977 30.384-29.487 16.048.471 28.616 14.057 28.616 30.113zm309 0v181.874c0 4.418-3.582 8-8 8h-43c-4.418 0-8-3.582-8-8v-182.5c0-16.564 13.712-29.977 30.384-29.487 16.048.471 28.616 14.057 28.616 30.113zm-306 398.874h-56c-4.418 0-8-3.582-8-8s3.582-8 8-8h56c4.418 0 8 3.582 8 8s-3.582 8-8 8zm300 0h-56c-4.418 0-8-3.582-8-8s3.582-8 8-8h56c4.418 0 8 3.582 8 8s-3.582 8-8 8zm-116.84-321.13c-2.05 0-4.1-.78-5.66-2.34-30.459-30.48-79.828-30.503-110.31 0-3.12 3.12-8.19 3.12-11.31 0-3.13-3.13-3.13-8.19 0-11.32 36.738-36.738 96.199-36.731 132.93 0 5.063 5.063 1.404 13.66-5.65 13.66zm-50.21 63.42c-5.847 5.847-15.342 5.868-21.21 0-9.442-9.442-2.676-25.61 10.6-25.61 13.409 0 19.967 16.22 10.61 25.61zm26.16-47.38c3.13 3.13 3.13 8.19 0 11.32-3.125 3.125-8.196 3.114-11.31 0-14.08-14.08-36.828-14.071-50.91-.01-3.13 3.13-8.19 3.13-11.31.01-3.13-3.13-3.13-8.19 0-11.32 20.326-20.326 53.209-20.321 73.53 0z" fill="#0d47a1" data-original="#000000" style="" class=""/></g></svg>
