<?xml version="1.0"?>
<svg xmlns="http://www.w3.org/2000/svg" xmlns:xlink="http://www.w3.org/1999/xlink" xmlns:svgjs="http://svgjs.com/svgjs" version="1.1" width="512" height="512" x="0" y="0" viewBox="0 0 480 480" style="enable-background:new 0 0 512 512" xml:space="preserve" class=""><g><path xmlns="http://www.w3.org/2000/svg" d="m240 58c-4.418 0-8-3.582-8-8v-42c0-4.418 3.582-8 8-8s8 3.582 8 8v42c0 4.418-3.582 8-8 8zm-72-8v-42c0-4.418-3.582-8-8-8s-8 3.582-8 8v42c0 4.418 3.582 8 8 8s8-3.582 8-8zm160 0v-42c0-4.418-3.582-8-8-8s-8 3.582-8 8v42c0 4.418 3.582 8 8 8s8-3.582 8-8zm-80 422v-42c0-4.418-3.582-8-8-8s-8 3.582-8 8v42c0 4.418 3.582 8 8 8s8-3.582 8-8zm80 0v-42c0-4.418-3.582-8-8-8s-8 3.582-8 8v42c0 4.418 3.582 8 8 8s8-3.582 8-8zm-160 0v-42c0-4.418-3.582-8-8-8s-8 3.582-8 8v42c0 4.418 3.582 8 8 8s8-3.582 8-8zm312-232c0-4.418-3.582-8-8-8h-42c-4.418 0-8 3.582-8 8s3.582 8 8 8h42c4.418 0 8-3.582 8-8zm0-80c0-4.418-3.582-8-8-8h-42c-4.418 0-8 3.582-8 8s3.582 8 8 8h42c4.418 0 8-3.582 8-8zm0 160c0-4.418-3.582-8-8-8h-42c-4.418 0-8 3.582-8 8s3.582 8 8 8h42c4.418 0 8-3.582 8-8zm-422-80c0-4.418-3.582-8-8-8h-42c-4.418 0-8 3.582-8 8s3.582 8 8 8h42c4.418 0 8-3.582 8-8zm0 80c0-4.418-3.582-8-8-8h-42c-4.418 0-8 3.582-8 8s3.582 8 8 8h42c4.418 0 8-3.582 8-8zm0-160c0-4.418-3.582-8-8-8h-42c-4.418 0-8 3.582-8 8s3.582 8 8 8h42c4.418 0 8-3.582 8-8zm340-38v236c0 22.06-17.94 40-40 40h-236c-22.06 0-40-17.94-40-40v-236c0-22.06 17.94-40 40-40h236c22.06 0 40 17.94 40 40zm-147.394 146.894c-5.861-5.862-15.349-5.865-21.212-.001-5.862 5.86-5.866 15.351-.001 21.213 5.861 5.862 15.35 5.864 21.212.001 5.864-5.861 5.865-15.349.001-21.213zm26.164-26.164c-20.321-20.322-53.215-20.325-73.539 0-3.124 3.124-3.124 8.189 0 11.313 3.125 3.125 8.189 3.124 11.314 0 14.068-14.069 36.841-14.07 50.91 0 3.124 3.124 8.189 3.124 11.314 0 3.125-3.123 3.125-8.189.001-11.313zm29.699-29.698c-36.738-36.737-96.196-36.74-132.938 0-3.124 3.124-3.124 8.189 0 11.313 3.125 3.124 8.189 3.124 11.314 0 30.481-30.483 79.824-30.487 110.309 0 3.124 3.124 8.189 3.124 11.314 0 3.125-3.123 3.125-8.189.001-11.313z" fill="#0d47a1" data-original="#000000" style="" class=""/></g></svg>
