<?xml version="1.0"?>
<svg xmlns="http://www.w3.org/2000/svg" xmlns:xlink="http://www.w3.org/1999/xlink" xmlns:svgjs="http://svgjs.com/svgjs" version="1.1" width="512" height="512" x="0" y="0" viewBox="0 0 477.112 477.112" style="enable-background:new 0 0 512 512" xml:space="preserve" class=""><g>
<path xmlns="http://www.w3.org/2000/svg" style="" d="M238.556,8c-88.366,0-160,71.634-160,160c0,88.368,160,296,160,296s160-207.632,160-296  C398.556,79.634,326.922,8,238.556,8z M238.556,216c-26.51,0-48-21.49-48-48s21.49-48,48-48s48,21.49,48,48S265.066,216,238.556,216  z" fill="#0d47a1" data-original="#7c84e8" class=""/>
<circle xmlns="http://www.w3.org/2000/svg" style="" cx="238.556" cy="168" r="48" fill="#ffffff" data-original="#a1a7ef" class=""/>
<g xmlns="http://www.w3.org/2000/svg">
	<path style="" d="M238.556,477.112l-6.336-8.232C225.62,460.32,70.556,258.056,70.556,168   c0-92.784,75.216-168,168-168s168,75.216,168,168c0,90.056-155.064,292.32-161.664,300.88L238.556,477.112z M238.556,16   c-83.909,0.093-151.907,68.091-152,152c0,74.832,122.472,243.2,152,282.728c29.528-39.528,152-207.912,152-282.728   C390.463,84.091,322.465,16.093,238.556,16z" fill="#231f20" data-original="#231f20" class=""/>
	<path style="" d="M238.556,224c-30.928,0-56-25.072-56-56s25.072-56,56-56s56,25.072,56,56   C294.521,198.913,269.469,223.965,238.556,224z M238.556,128c-22.091,0-40,17.909-40,40s17.909,40,40,40s40-17.909,40-40   C278.53,145.92,260.636,128.026,238.556,128z" fill="#231f20" data-original="#231f20" class=""/>
</g>
<g xmlns="http://www.w3.org/2000/svg">
</g>
<g xmlns="http://www.w3.org/2000/svg">
</g>
<g xmlns="http://www.w3.org/2000/svg">
</g>
<g xmlns="http://www.w3.org/2000/svg">
</g>
<g xmlns="http://www.w3.org/2000/svg">
</g>
<g xmlns="http://www.w3.org/2000/svg">
</g>
<g xmlns="http://www.w3.org/2000/svg">
</g>
<g xmlns="http://www.w3.org/2000/svg">
</g>
<g xmlns="http://www.w3.org/2000/svg">
</g>
<g xmlns="http://www.w3.org/2000/svg">
</g>
<g xmlns="http://www.w3.org/2000/svg">
</g>
<g xmlns="http://www.w3.org/2000/svg">
</g>
<g xmlns="http://www.w3.org/2000/svg">
</g>
<g xmlns="http://www.w3.org/2000/svg">
</g>
<g xmlns="http://www.w3.org/2000/svg">
</g>
</g></svg>
